<svg width="192" height="49" viewBox="0 0 192 49" fill="none" xmlns="http://www.w3.org/2000/svg">
<path d="M124.968 14.764C125.304 14.764 125.652 14.86 126.012 15.052C126.396 15.22 126.684 15.448 126.876 15.736L135.624 29.2L133.824 29.128L142.788 15.736C143.244 15.088 143.832 14.764 144.552 14.764C145.128 14.764 145.644 14.968 146.1 15.376C146.556 15.784 146.784 16.312 146.784 16.96V37.804C146.784 38.428 146.58 38.956 146.172 39.388C145.764 39.796 145.224 40 144.552 40C143.88 40 143.328 39.796 142.896 39.388C142.488 38.956 142.284 38.428 142.284 37.804V20.848L143.688 21.172L136.344 32.368C136.128 32.632 135.852 32.86 135.516 33.052C135.204 33.244 134.88 33.328 134.544 33.304C134.232 33.328 133.908 33.244 133.572 33.052C133.26 32.86 132.996 32.632 132.78 32.368L125.904 21.496L126.84 19.588V37.804C126.84 38.428 126.648 38.956 126.264 39.388C125.88 39.796 125.376 40 124.752 40C124.152 40 123.66 39.796 123.276 39.388C122.892 38.956 122.7 38.428 122.7 37.804V16.96C122.7 16.36 122.916 15.844 123.348 15.412C123.804 14.98 124.344 14.764 124.968 14.764ZM170.088 14.764C170.712 14.764 171.216 14.98 171.6 15.412C171.984 15.82 172.176 16.336 172.176 16.96V29.992C172.176 31.984 171.744 33.748 170.88 35.284C170.04 36.82 168.876 38.02 167.388 38.884C165.9 39.748 164.172 40.18 162.204 40.18C160.236 40.18 158.496 39.748 156.984 38.884C155.496 38.02 154.32 36.82 153.456 35.284C152.616 33.748 152.196 31.984 152.196 29.992V16.96C152.196 16.336 152.412 15.82 152.844 15.412C153.276 14.98 153.828 14.764 154.5 14.764C155.052 14.764 155.544 14.98 155.976 15.412C156.432 15.82 156.66 16.336 156.66 16.96V29.992C156.66 31.192 156.912 32.236 157.416 33.124C157.944 33.988 158.628 34.66 159.468 35.14C160.332 35.62 161.244 35.86 162.204 35.86C163.236 35.86 164.196 35.62 165.084 35.14C165.972 34.66 166.692 33.988 167.244 33.124C167.796 32.236 168.072 31.192 168.072 29.992V16.96C168.072 16.336 168.252 15.82 168.612 15.412C168.972 14.98 169.464 14.764 170.088 14.764Z" fill="white"/>
<path d="M10.8 40.36C9.12 40.36 7.608 40.156 6.264 39.748C4.92 39.316 3.636 38.572 2.412 37.516C2.1 37.252 1.86 36.952 1.692 36.616C1.524 36.28 1.44 35.944 1.44 35.608C1.44 35.056 1.632 34.576 2.016 34.168C2.424 33.736 2.928 33.52 3.528 33.52C3.984 33.52 4.392 33.664 4.752 33.952C5.664 34.696 6.564 35.26 7.452 35.644C8.364 36.028 9.48 36.22 10.8 36.22C11.688 36.22 12.504 36.088 13.248 35.824C13.992 35.536 14.592 35.164 15.048 34.708C15.504 34.228 15.732 33.688 15.732 33.088C15.732 32.368 15.516 31.756 15.084 31.252C14.652 30.748 13.992 30.328 13.104 29.992C12.216 29.632 11.088 29.356 9.72 29.164C8.424 28.972 7.284 28.684 6.3 28.3C5.316 27.892 4.488 27.388 3.816 26.788C3.168 26.164 2.676 25.444 2.34 24.628C2.004 23.788 1.836 22.852 1.836 21.82C1.836 20.26 2.232 18.928 3.024 17.824C3.84 16.72 4.932 15.88 6.3 15.304C7.668 14.728 9.18 14.44 10.836 14.44C12.396 14.44 13.836 14.68 15.156 15.16C16.5 15.616 17.592 16.204 18.432 16.924C19.128 17.476 19.476 18.112 19.476 18.832C19.476 19.36 19.272 19.84 18.864 20.272C18.456 20.704 17.976 20.92 17.424 20.92C17.064 20.92 16.74 20.812 16.452 20.596C16.068 20.26 15.552 19.948 14.904 19.66C14.256 19.348 13.572 19.096 12.852 18.904C12.132 18.688 11.46 18.58 10.836 18.58C9.804 18.58 8.928 18.712 8.208 18.976C7.512 19.24 6.984 19.6 6.624 20.056C6.264 20.512 6.084 21.04 6.084 21.64C6.084 22.36 6.288 22.96 6.696 23.44C7.128 23.896 7.74 24.268 8.532 24.556C9.324 24.82 10.272 25.06 11.376 25.276C12.816 25.54 14.076 25.852 15.156 26.212C16.26 26.572 17.172 27.04 17.892 27.616C18.612 28.168 19.152 28.876 19.512 29.74C19.872 30.58 20.052 31.612 20.052 32.836C20.052 34.396 19.62 35.74 18.756 36.868C17.892 37.996 16.752 38.86 15.336 39.46C13.944 40.06 12.432 40.36 10.8 40.36ZM26.3765 14.8H38.4365C39.0605 14.8 39.5765 15.004 39.9845 15.412C40.4165 15.796 40.6325 16.3 40.6325 16.924C40.6325 17.524 40.4165 18.016 39.9845 18.4C39.5765 18.76 39.0605 18.94 38.4365 18.94H28.3565L28.6805 18.328V25.348L28.3925 25.06H36.8165C37.4405 25.06 37.9565 25.264 38.3645 25.672C38.7965 26.056 39.0125 26.56 39.0125 27.184C39.0125 27.784 38.7965 28.276 38.3645 28.66C37.9565 29.02 37.4405 29.2 36.8165 29.2H28.5005L28.6805 28.912V36.184L28.3925 35.86H38.4365C39.0605 35.86 39.5765 36.076 39.9845 36.508C40.4165 36.916 40.6325 37.396 40.6325 37.948C40.6325 38.548 40.4165 39.04 39.9845 39.424C39.5765 39.808 39.0605 40 38.4365 40H26.3765C25.7525 40 25.2245 39.796 24.7925 39.388C24.3845 38.956 24.1805 38.428 24.1805 37.804V16.996C24.1805 16.372 24.3845 15.856 24.7925 15.448C25.2245 15.016 25.7525 14.8 26.3765 14.8ZM63.898 14.8C64.474 14.8 64.942 14.992 65.302 15.376C65.662 15.76 65.842 16.24 65.842 16.816V37.804C65.842 38.428 65.626 38.956 65.194 39.388C64.786 39.796 64.27 40 63.646 40C63.334 40 63.01 39.952 62.674 39.856C62.362 39.736 62.122 39.58 61.954 39.388L47.806 21.424L48.742 20.848V37.984C48.742 38.56 48.55 39.04 48.166 39.424C47.806 39.808 47.326 40 46.726 40C46.15 40 45.682 39.808 45.322 39.424C44.962 39.04 44.782 38.56 44.782 37.984V16.996C44.782 16.372 44.986 15.856 45.394 15.448C45.826 15.016 46.354 14.8 46.978 14.8C47.314 14.8 47.662 14.872 48.022 15.016C48.382 15.136 48.646 15.328 48.814 15.592L62.53 33.088L61.918 33.52V16.816C61.918 16.24 62.098 15.76 62.458 15.376C62.818 14.992 63.298 14.8 63.898 14.8ZM79.7867 40C79.1147 40 78.5627 39.796 78.1307 39.388C77.6987 38.956 77.4827 38.428 77.4827 37.804V16.924H82.1627V37.804C82.1627 38.428 81.9347 38.956 81.4787 39.388C81.0467 39.796 80.4827 40 79.7867 40ZM71.8307 18.94C71.2067 18.94 70.6787 18.748 70.2467 18.364C69.8387 17.98 69.6347 17.476 69.6347 16.852C69.6347 16.228 69.8387 15.736 70.2467 15.376C70.6787 14.992 71.2067 14.8 71.8307 14.8H87.8147C88.4387 14.8 88.9547 14.992 89.3627 15.376C89.7947 15.76 90.0107 16.264 90.0107 16.888C90.0107 17.512 89.7947 18.016 89.3627 18.4C88.9547 18.76 88.4387 18.94 87.8147 18.94H71.8307ZM98.2898 37.804C98.2898 38.428 98.0618 38.956 97.6058 39.388C97.1498 39.796 96.6218 40 96.0218 40C95.3498 40 94.8098 39.796 94.4018 39.388C93.9938 38.956 93.7898 38.428 93.7898 37.804V16.996C93.7898 16.372 94.0058 15.856 94.4378 15.448C94.8698 15.016 95.4218 14.8 96.0938 14.8C96.6698 14.8 97.1738 15.016 97.6058 15.448C98.0618 15.856 98.2898 16.372 98.2898 16.996V37.804Z" fill="white"/>
<path d="M106.608 42.84C106.104 42.84 105.684 42.672 105.348 42.336C105.036 42.024 104.88 41.616 104.88 41.112V12.528C104.88 12.024 105.036 11.616 105.348 11.304C105.684 10.968 106.104 10.8 106.608 10.8H114.204C114.708 10.8 115.116 10.968 115.428 11.304C115.764 11.616 115.932 12.024 115.932 12.528C115.932 13.008 115.764 13.416 115.428 13.752C115.116 14.064 114.708 14.22 114.204 14.22H108.84L109.02 13.932V39.852L108.588 39.42H114.204C114.708 39.42 115.116 39.576 115.428 39.888C115.764 40.224 115.932 40.644 115.932 41.148C115.932 41.628 115.764 42.024 115.428 42.336C115.116 42.672 114.708 42.84 114.204 42.84H106.608ZM187.243 10.8C187.747 10.8 188.155 10.968 188.467 11.304C188.803 11.616 188.971 12.024 188.971 12.528V41.112C188.971 41.616 188.803 42.024 188.467 42.336C188.155 42.672 187.747 42.84 187.243 42.84H179.647C179.143 42.84 178.723 42.672 178.387 42.336C178.075 42.024 177.919 41.616 177.919 41.112C177.919 40.632 178.075 40.224 178.387 39.888C178.723 39.576 179.143 39.42 179.647 39.42H185.011L184.831 39.708V13.788L185.263 14.22H179.647C179.143 14.22 178.723 14.064 178.387 13.752C178.075 13.416 177.919 12.996 177.919 12.492C177.919 12.012 178.075 11.616 178.387 11.304C178.723 10.968 179.143 10.8 179.647 10.8H187.243Z" fill="white"/>
</svg>
