<svg width="150" height="100" viewBox="0 0 150 100" fill="none" xmlns="http://www.w3.org/2000/svg">
<rect width="150" height="100" rx="7" fill="#1C2434"/>
<path d="M40.59 31.445C41.1033 31.445 41.635 31.5917 42.185 31.885C42.7717 32.1417 43.2117 32.49 43.505 32.93L56.87 53.5L54.12 53.39L67.815 32.93C68.5117 31.94 69.41 31.445 70.51 31.445C71.39 31.445 72.1783 31.7567 72.875 32.38C73.5717 33.0033 73.92 33.81 73.92 34.8V66.645C73.92 67.5983 73.6083 68.405 72.985 69.065C72.3617 69.6883 71.5367 70 70.51 70C69.4833 70 68.64 69.6883 67.98 69.065C67.3567 68.405 67.045 67.5983 67.045 66.645V40.74L69.19 41.235L57.97 58.34C57.64 58.7433 57.2183 59.0917 56.705 59.385C56.2283 59.6783 55.7333 59.8067 55.22 59.77C54.7433 59.8067 54.2483 59.6783 53.735 59.385C53.2583 59.0917 52.855 58.7433 52.525 58.34L42.02 41.73L43.45 38.815V66.645C43.45 67.5983 43.1567 68.405 42.57 69.065C41.9833 69.6883 41.2133 70 40.26 70C39.3433 70 38.5917 69.6883 38.005 69.065C37.4183 68.405 37.125 67.5983 37.125 66.645V34.8C37.125 33.8833 37.455 33.095 38.115 32.435C38.8117 31.775 39.6367 31.445 40.59 31.445ZM109.523 31.445C110.477 31.445 111.247 31.775 111.833 32.435C112.42 33.0583 112.713 33.8467 112.713 34.8V54.71C112.713 57.7533 112.053 60.4483 110.733 62.795C109.45 65.1417 107.672 66.975 105.398 68.295C103.125 69.615 100.485 70.275 97.4785 70.275C94.4718 70.275 91.8135 69.615 89.5035 68.295C87.2301 66.975 85.4335 65.1417 84.1135 62.795C82.8301 60.4483 82.1885 57.7533 82.1885 54.71V34.8C82.1885 33.8467 82.5185 33.0583 83.1785 32.435C83.8385 31.775 84.6818 31.445 85.7085 31.445C86.5518 31.445 87.3035 31.775 87.9635 32.435C88.6601 33.0583 89.0085 33.8467 89.0085 34.8V54.71C89.0085 56.5433 89.3935 58.1383 90.1635 59.495C90.9701 60.815 92.0151 61.8417 93.2985 62.575C94.6185 63.3083 96.0118 63.675 97.4785 63.675C99.0551 63.675 100.522 63.3083 101.878 62.575C103.235 61.8417 104.335 60.815 105.178 59.495C106.022 58.1383 106.443 56.5433 106.443 54.71V34.8C106.443 33.8467 106.718 33.0583 107.268 32.435C107.818 31.775 108.57 31.445 109.523 31.445Z" fill="white"/>
<path d="M13.04 74.45C12.27 74.45 11.6283 74.1933 11.115 73.68C10.6383 73.2033 10.4 72.58 10.4 71.81V28.14C10.4 27.37 10.6383 26.7467 11.115 26.27C11.6283 25.7567 12.27 25.5 13.04 25.5H24.645C25.415 25.5 26.0383 25.7567 26.515 26.27C27.0283 26.7467 27.285 27.37 27.285 28.14C27.285 28.8733 27.0283 29.4967 26.515 30.01C26.0383 30.4867 25.415 30.725 24.645 30.725H16.45L16.725 30.285V69.885L16.065 69.225H24.645C25.415 69.225 26.0383 69.4633 26.515 69.94C27.0283 70.4533 27.285 71.095 27.285 71.865C27.285 72.5983 27.0283 73.2033 26.515 73.68C26.0383 74.1933 25.415 74.45 24.645 74.45H13.04ZM136.233 25.5C137.003 25.5 137.626 25.7567 138.103 26.27C138.616 26.7467 138.873 27.37 138.873 28.14V71.81C138.873 72.58 138.616 73.2033 138.103 73.68C137.626 74.1933 137.003 74.45 136.233 74.45H124.628C123.858 74.45 123.216 74.1933 122.703 73.68C122.226 73.2033 121.988 72.58 121.988 71.81C121.988 71.0767 122.226 70.4533 122.703 69.94C123.216 69.4633 123.858 69.225 124.628 69.225H132.823L132.548 69.665V30.065L133.208 30.725H124.628C123.858 30.725 123.216 30.4867 122.703 30.01C122.226 29.4967 121.988 28.855 121.988 28.085C121.988 27.3517 122.226 26.7467 122.703 26.27C123.216 25.7567 123.858 25.5 124.628 25.5H136.233Z" fill="white"/>
</svg>
